<?xml version="1.0" encoding="utf-8"?>
<!-- Svg Vector Icons : http://www.onlinewebfonts.com/icon -->
<!DOCTYPE svg PUBLIC "-//W3C//DTD SVG 1.1//EN" "http://www.w3.org/Graphics/SVG/1.1/DTD/svg11.dtd">
<svg version="1.1" xmlns="http://www.w3.org/2000/svg" xmlns:xlink="http://www.w3.org/1999/xlink" x="0px" y="0px" viewBox="0 0 256 256" enable-background="new 0 0 256 256" xml:space="preserve">
<metadata> Svg Vector Icons : http://www.onlinewebfonts.com/icon </metadata>
<g><g><g><path fill="#000000" d="M78.2,10.5c-0.6,0.4-0.7,4.1-0.8,28.2l-0.1,27.8L74,68.2c-6.9,3.6-12.7,9.5-16.2,16.7c-4,8.2-3.6,0.2-3.8,84.3l-0.1,74.5l1.1,1.2l1.2,1.2h36.2h36.2l1.2-1.2l1.1-1.1l-0.1-74.6c-0.1-83.6,0.2-76-3.5-83.8c-3.5-7.1-8.9-12.9-16.2-16.9l-3.5-2l0-27.3c0-17.9-0.2-27.7-0.5-28.3c-0.5-0.8-1.1-0.9-14.2-0.9C84.8,10,78.7,10.2,78.2,10.5z M93,67.6v6.9l-2.9,1.7C80.5,81.8,74.7,89,73.2,97.3c-0.3,1.5-0.5,7.3-0.5,12.8v10h-5.3h-5.3v-11c0-12.4,0.3-14.1,3.2-20.1c3.4-6.9,8.7-12.2,15.8-15.6l4-1.9l0-5.4v-5.4h3.9H93L93,67.6L93,67.6z M95.6,129c1.6,1.5,2.2,2.5,2.8,4.6c0.7,2.4,0.9,2.6,1.7,2.4c0.6-0.2,2.1-0.4,3.4-0.4c2.9,0,3.8,0.8,3.8,3.3c0,5.1-4.5,9.2-9.6,8.8c-1.4-0.1-2.7-0.5-2.9-0.9c-0.2-0.4-0.4-1.7-0.4-3c0-2.5-0.7-3.6-2-3.2c-0.5,0.2-0.7,1.2-0.9,3.2c-0.1,1.6-0.3,3.1-0.6,3.3c-0.2,0.2-1.8,0.4-3.5,0.4c-3.5,0-5.5-1-7.4-3.8c-1.2-1.7-1.8-6.3-1-7.5c0.5-0.7,5-1,6.8-0.3c0.9,0.3,1,0.1,1.2-1.5c0.3-2.4,2.2-5.3,4.1-6.5c0.8-0.5,1.6-0.9,1.8-0.9C93.3,127.1,94.4,128,95.6,129z M81.7,152.9c2.4,1.9,3.2,4.8,1.9,7.2c-2,3.9-6.7,4.7-9.7,1.5c-3.5-3.7-0.8-9.7,4.3-9.7C79.8,152,80.8,152.2,81.7,152.9z M96.9,153.5c2,2,2.4,4.3,1.3,6.6c-1.2,2.3-2.9,3.5-5.2,3.5c-5.6,0-8.2-6.4-4.1-10.1c1.4-1.3,2-1.5,4-1.5C95.1,152,95.6,152.2,96.9,153.5z M110.9,152.9c3,1.8,3.5,5.9,1.2,8.8c-3.5,4.2-10.3,1.5-10.3-4.1c0-1.7,0.3-2.2,1.8-3.7c1.5-1.5,2.1-1.8,3.8-1.8C108.5,152,110,152.3,110.9,152.9z M87.5,166c2.2,1.1,3.2,2.9,3.2,5.3c0,2.4-1.1,4.2-3.2,5.3c-3.9,2-8.3-0.9-8.3-5.3C79.2,166.8,83.5,164,87.5,166z M103.6,166c2.9,1.6,4,5.5,2.3,8.4c-2.6,4.2-8.6,3.6-10.4-1.1c-0.7-2-0.7-2.2,0.1-4.2C97,165.8,100.5,164.4,103.6,166z M96.4,180.1c2.4,1.9,3.2,4.8,1.9,7.2c-2.1,4-6.7,4.7-9.8,1.4c-1.2-1.2-1.3-1.8-1.3-3.9c0-2.3,0.1-2.7,1.7-4.1c1.5-1.3,2.1-1.6,4-1.6C94.5,179.2,95.5,179.4,96.4,180.1z M72.7,213.7v18.4h-5.3h-5.3v-18.4v-18.4h5.3h5.3L72.7,213.7L72.7,213.7z"/><path fill="#000000" d="M147.8,114.5c-1,2.6-4.1,15.3-5,20.9c-1.2,7.3-2.3,18.4-2.3,22.4c0,11,6.2,21.3,15.9,26.9c4.1,2.4,6.9,5.3,8.8,9.1l1.8,3.5V213v15.7l-1.3,2.6c-2.5,5-7.7,8.3-16.1,10.2c-4.1,0.9-4.7,1.2-4.8,2.1c-0.4,2.4-1.1,2.4,26.6,2.4c14.1,0,25.9-0.2,26.2-0.4c0.4-0.2,0.6-0.9,0.5-1.7c-0.1-1.2-0.3-1.3-4.8-2.4c-8.4-1.9-14-5.5-16.4-10.6c-1-2.2-1-2.7-1-17.9v-15.7l1.5-3.1c1.8-3.8,5.2-7.2,9.6-9.8c5-2.9,9.4-7.6,12-12.8c3.5-7.1,4.1-11.7,2.8-23.6c-1.2-11.6-3.5-23.2-6.1-31.9l-0.8-2.8l-23.1-0.1l-23.1-0.1L147.8,114.5z M191.5,123.6c1.4,4.7,3.8,16.6,3.8,18.5v1.5h-18.9h-18.9l-0.5,1.7c-2.1,7.7-1.9,19.6,0.2,28.9c0.4,1.7,0.6,3.2,0.6,3.3c-0.5,0.5-5.8-4.4-7.5-7c-4.8-7.1-5.4-14.5-2.5-32.2c0.9-5.4,3.1-14.9,4.1-17.4l0.5-1.2l19,0.1l19,0.1L191.5,123.6z"/></g></g></g>
</svg>