<?xml version="1.0" encoding="utf-8"?>
<!-- Svg Vector Icons : http://www.onlinewebfonts.com/icon -->
<!DOCTYPE svg PUBLIC "-//W3C//DTD SVG 1.1//EN" "http://www.w3.org/Graphics/SVG/1.1/DTD/svg11.dtd">
<svg version="1.1" xmlns="http://www.w3.org/2000/svg" xmlns:xlink="http://www.w3.org/1999/xlink" x="0px" y="0px" viewBox="0 0 256 256" enable-background="new 0 0 256 256" xml:space="preserve">
<metadata> Svg Vector Icons : http://www.onlinewebfonts.com/icon </metadata>
<g><g><path fill="#000000" d="M234.1,174.7c-2.2,0-4.5-4.8-5.6-8.5c-6.9-23.5-38-48.4-66.1-51.5v0.3c0,7.7-2.8,13.5-8.5,17c-2.9,1.9-6,2.8-9.2,2.8c-3.7,0-7.3-1.3-10.4-3.7L92.3,97.8c-4.7-3.6-7.6-9.3-7.6-15.3c0-6,2.8-11.7,7.4-15.2l42.2-33.4c0.3-0.3,0.7-0.5,1.1-0.7c2-1.1,5.2-2.5,9.1-2.5c3.2,0,6.3,0.9,9.2,2.6c7.1,4.4,8.1,11.6,8.5,14.7l0.1,0.6c0.1,0.5,0.1,1,0.1,1.4v1.5c43.3,7.3,83.5,51.2,83.5,93.6c0,7.9-1.1,15.7-3.4,23.3C241.4,172.2,237.6,175.5,234.1,174.7L234.1,174.7z M145,50.7l0-0.1c-0.1-0.7-0.3-1.8-0.5-2.3l-41.6,32.8c-0.4,0.3-0.6,0.8-0.6,1.4c0,0.6,0.2,1,0.8,1.5l41.8,33c0.1-0.2,0.1-0.8,0.1-2v-9.3c0-4.6,3.6-8.4,8.2-8.7c27.7-2,56.7,16.3,74.4,38.7c-5.9-32.6-41-65.7-74.3-67.6c-4.7-0.3-8.3-4.1-8.3-8.7L145,50.7L145,50.7L145,50.7z"/><path fill="#000000" d="M182.4,235.8h-140c-17.8,0-32.3-14.5-32.3-32.3v-151c0-17.8,14.5-32.3,32.3-32.3h67.1v18.5H42.3c-7.6,0-13.9,6.2-13.9,13.9v151c0,7.6,6.2,13.9,13.9,13.9h140c7.6,0,13.9-6.2,13.9-13.9v-53.6h18.5v53.6C214.7,221.3,200.2,235.8,182.4,235.8L182.4,235.8z"/></g></g>
</svg>