<?xml version="1.0" encoding="utf-8"?>
<!-- Svg Vector Icons : http://www.onlinewebfonts.com/icon -->
<!DOCTYPE svg PUBLIC "-//W3C//DTD SVG 1.1//EN" "http://www.w3.org/Graphics/SVG/1.1/DTD/svg11.dtd">
<svg version="1.1" xmlns="http://www.w3.org/2000/svg" xmlns:xlink="http://www.w3.org/1999/xlink" x="0px" y="0px" viewBox="0 0 256 256" enable-background="new 0 0 256 256" xml:space="preserve">
<metadata> Svg Vector Icons : http://www.onlinewebfonts.com/icon </metadata>
<g><g><g><path fill="#000000" d="M123.4,10.3c-4.9,1.6-9.2,5.3-11.1,9.8c-1.2,2.6-1.4,2.9-3,2.9c-7.1,0.1-12.2,4.9-12.2,11.7v2H78c-16.1,0-19.5,0.1-21.2,0.8c-2.5,1-4.1,2.6-5.5,5.2c-1.1,2-1.1,3.2-1.1,98.7c0,62,0.2,97.1,0.5,98c0.8,2.1,3.2,4.6,5.4,5.7c1.9,1,3.6,1,71.7,1h69.7l2.3-1.2c1.3-0.6,3-2,3.9-3.1l1.6-2l0.2-97.6c0.1-95.1,0.1-97.6-0.9-99.6c-1.3-2.5-2.9-4-5.4-5.1c-1.6-0.7-5-0.8-21.2-0.8H159v-2c0-6.8-5.1-11.6-12.2-11.7c-1.6,0-1.8-0.3-2.9-2.8c-1.5-3.4-4.7-6.8-8.2-8.6c-2-1-3.6-1.4-6.8-1.5C126.6,9.9,124.1,10,123.4,10.3z M185.8,141.3v84.8h-57.7H70.4v-84.8V56.5h57.7h57.7V141.3z"/><path fill="#000000" d="M78.3,141.4l0.2,76.5h49.6h49.6l0.2-76.5l0.1-76.5h-49.9H78.2L78.3,141.4z M104,84.7c1.5,1.4,1.3,4.6-0.4,5.9c-1.2,0.9-2.2,1.1-5.5,1.1c-2.3,0-4.7-0.3-5.4-0.6c-2.5-1.1-2.9-4.2-1-6.4C92.9,83.4,102.6,83.4,104,84.7z M164.4,84.7c1.9,2.2,1.5,5.3-1,6.4c-0.8,0.4-8.9,0.6-25.6,0.6c-23.8,0-24.4,0-25.7-1.1c-1.7-1.4-1.9-4.1-0.3-5.7c1-1,1.7-1,26.4-1C161.7,83.8,163.7,83.9,164.4,84.7z M103.9,111.6c1.4,1.4,1.4,4.4-0.1,5.8c-0.9,0.9-1.8,1-5.7,1c-2.5,0-5-0.2-5.5-0.3c-1.3-0.5-2.4-3.1-2-4.7c0.6-2.3,2-2.9,7.4-2.9C102.2,110.6,103,110.8,103.9,111.6z M164.1,111.4c0.6,0.4,1.3,1.4,1.4,2.1c0.4,1.5-0.8,4.1-2,4.7c-0.5,0.2-12,0.3-25.6,0.3c-24.7,0-24.7,0-25.9-1.2c-1.5-1.4-1.6-4.2-0.2-5.7c1-1,1.7-1,26.1-1C159.2,110.6,163.2,110.7,164.1,111.4z M103.8,138.4c1.5,1.4,1.5,4.4,0.1,5.8c-0.9,0.9-1.7,1-6,1c-5.9,0-7.3-0.7-7.3-3.9c0-3.1,1.4-3.9,7.2-3.9C102,137.4,102.8,137.5,103.8,138.4z M163.5,137.7c1.3,0.5,2.4,3.2,2,4.7c-0.7,2.9-0.4,2.9-27.4,2.9c-24.9,0-24.9,0-26.1-1.2c-1.6-1.5-1.6-3.9-0.1-5.5l1.1-1.2h24.8C151.5,137.4,163,137.5,163.5,137.7z M103.6,165.2c1.7,1.4,1.9,4.1,0.3,5.7c-0.9,0.9-1.7,1.1-6.2,1.1c-4.3,0-5.4-0.2-6-0.9c-1.9-2.1-1.5-5.2,0.8-6.3c0.6-0.3,3-0.6,5.4-0.6C101.5,164.1,102.5,164.3,103.6,165.2z M163.4,164.7c2.5,1.1,2.9,4.2,1,6.4c-0.7,0.9-2.7,0.9-26.2,0.9c-24.7,0-25.4-0.1-26.4-1.1c-1.6-1.6-1.4-4.4,0.3-5.7c1.4-1.1,1.9-1.1,25.7-1.1C154.5,164.1,162.6,164.3,163.4,164.7z M103.9,192.2c0.7,0.7,1.1,1.6,1.1,2.9c0,3.1-1.3,3.9-6.9,4.1c-4.6,0.2-4.7,0.2-6.2-1.4c-2-2-2-3.5,0-5.5c1.6-1.6,1.7-1.6,6.2-1.4C101.8,191.1,103,191.4,103.9,192.2z M164.3,192.4c0.8,0.8,1.5,2,1.5,2.7c0,0.6-0.7,1.8-1.5,2.7l-1.5,1.5h-24.4c-26.2,0-26.5-0.1-27.4-2.8c-0.7-1.9,0.1-4.1,1.8-4.9c1-0.5,7.1-0.7,25.6-0.7h24.4L164.3,192.4z"/></g></g></g>
</svg>