<?xml version="1.0" encoding="utf-8"?>
<!-- Svg Vector Icons : http://www.onlinewebfonts.com/icon -->
<!DOCTYPE svg PUBLIC "-//W3C//DTD SVG 1.1//EN" "http://www.w3.org/Graphics/SVG/1.1/DTD/svg11.dtd">
<svg version="1.1" xmlns="http://www.w3.org/2000/svg" xmlns:xlink="http://www.w3.org/1999/xlink" x="0px" y="0px" viewBox="0 0 256 256" enable-background="new 0 0 256 256" xml:space="preserve">
<metadata> Svg Vector Icons : http://www.onlinewebfonts.com/icon </metadata>
<g><g><path fill="#000000" d="M13.4,246.2c-1.9,0-3.4-1.6-3.4-3.5V105.6c0-2,1.5-3.5,3.4-3.5h51.8c2.1,0,5.3,1.4,6.8,3l45.7,48.4c1.5,1.6,2.7,4.8,2.7,7v82.3c0,2-1.5,3.5-3.4,3.5H13.4z M113.6,239.1v-78.6c-0.1-0.8-0.5-1.7-0.8-2.2L67.2,110c-0.5-0.4-1.4-0.8-2-0.9H16.8v130.1L113.6,239.1L113.6,239.1z"/><path fill="#000000" d="M135.8,107.7c-25.5,0-46.3-21.9-46.3-48.9c0-27,20.8-48.9,46.3-48.9c25.5,0,46.3,21.9,46.3,48.9C182.1,85.7,161.3,107.7,135.8,107.7z M135.8,17c-21.7,0-39.3,18.7-39.3,41.7s17.6,41.7,39.3,41.7c21.7,0,39.3-18.7,39.3-41.7C175.1,35.7,157.5,17,135.8,17z"/><path fill="#000000" d="M198.6,171.5c-1.9,0-3.5-1.6-3.5-3.6c0-34.3-26.3-60.2-61.2-60.2c-11.6,0-22.9,3.5-32.7,10c-0.6,0.4-1.2,0.6-1.9,0.6c-1.2,0-2.3-0.6-3-1.7c-0.5-0.8-0.7-1.8-0.5-2.7c0.2-0.9,0.7-1.8,1.5-2.3c10.9-7.3,23.5-11.2,36.5-11.2c38.8,0,68.1,29,68.1,67.5C202.1,169.9,200.6,171.5,198.6,171.5z"/><path fill="#000000" d="M172.2,241.9c-1,0-2-0.4-2.6-1.2L137,206.3c-1.4-1.5-1.4-4,0-5.4c0.7-0.7,1.6-1.2,2.6-1.2c1,0,2,0.4,2.7,1.2l29.8,31.6l67.5-71.5c0.7-0.7,1.6-1.2,2.7-1.2s2,0.4,2.6,1.2c0.7,0.7,1.1,1.7,1.1,2.7s-0.4,2-1.1,2.7l-70.2,74.3C174.1,241.5,173.1,241.9,172.2,241.9z"/><path fill="#000000" d="M39.7,168.4c-1.6,0-2.9-1.3-2.9-3c0-1.7,1.3-3,2.9-3h33.9c1.6,0,2.9,1.3,2.9,3s-1.3,3-2.9,3H39.7z"/><path fill="#000000" d="M39.7,193.9c-1.6,0-2.9-1.3-2.9-3c0-1.7,1.3-3,2.9-3h33.9c1.6,0,2.9,1.3,2.9,3c0,1.7-1.3,3-2.9,3H39.7z"/><path fill="#000000" d="M39.7,219.3c-1.6,0-2.9-1.3-2.9-3s1.3-3,2.9-3h33.9c1.6,0,2.9,1.3,2.9,3c0,0.8-0.3,1.5-0.8,2.1c-0.6,0.6-1.3,0.9-2.1,0.9H39.7z"/></g></g>
</svg>