<?xml version="1.0" encoding="utf-8"?>
<!-- Svg Vector Icons : http://www.onlinewebfonts.com/icon -->
<!DOCTYPE svg PUBLIC "-//W3C//DTD SVG 1.1//EN" "http://www.w3.org/Graphics/SVG/1.1/DTD/svg11.dtd">
<svg version="1.1" xmlns="http://www.w3.org/2000/svg" xmlns:xlink="http://www.w3.org/1999/xlink" x="0px" y="0px" viewBox="0 0 256 256" enable-background="new 0 0 256 256" xml:space="preserve">
<metadata> Svg Vector Icons : http://www.onlinewebfonts.com/icon </metadata>
<g><g><path fill="#000000" d="M26.4,235.8h204V246h-204V235.8L26.4,235.8z M25.6,189l25.6-14.2l47.4,20.6l52.1-67.5l53.2,35.1l25.6-1v6.3l-28.8,1.2l-48.1-31.4L101,204.5l-49.2-21.6l-26.2,14.2V189z M205.3,153.4l11.9-0.5v-35.2c0-3.1-2.8-5.6-6.3-5.6h-18.5c-3.5,0-6.3,2.5-6.3,5.6v23L205.3,153.4L205.3,153.4z M198.1,179.7l-11.9-7.8v54.4h31v-47.4L198.1,179.7z M148.4,115.9l18.7,12.3V84c0-3.1-2.8-5.6-6.3-5.6h-18.5c-3.5,0-6.3,2.5-6.3,5.6v47.9L148.4,115.9L148.4,115.9z M153.6,150.7l-17.5,22.5v53.2h31v-66.9L153.6,150.7z M102.6,216.2l-16.2-7.1v17.3h31v-29.3L102.6,216.2z M95.7,184.3l21.7-28.2v-3.7c0-3.1-2.8-5.6-6.3-5.6H92.7c-3.5,0-6.3,2.5-6.3,5.6v27.9L95.7,184.3L95.7,184.3z M50.1,164.5l17.5,7.6v-39.5c0-3.1-2.8-5.6-6.3-5.6H42.8c-3.5,0-6.3,2.5-6.3,5.6v39.4L50.1,164.5L50.1,164.5z M51.5,193.8l-15,8.1v23.6c0,0.3,0,0.7,0.1,1h30.8c0.1-0.3,0.1-0.6,0.1-1v-24.6L51.5,193.8L51.5,193.8z"/><path fill="#000000" d="M50.3,10h5.5L45.7,58.8L116.9,10h8.7L74.3,45.1l36.7,49.8h-7.6L69.3,48.5L44.2,65.7l-6.1,29.3h-5.5L50.3,10z"/><path fill="#000000" d="M134,10h44.2c11.8,0,25.1,4.2,20.9,23.6c-2.9,14.3-13.2,24-31.6,24h-37.9l-7.7,37.4h-5.5L134,10z M130.6,52.8h37.8c10.5,0,22-4.2,25.2-19c4.2-19-11.3-19-18.5-19h-36.5L130.6,52.8z"/><path fill="#000000" d="M213.3,10h5.5l-17.6,84.9h-5.5L213.3,10z"/></g></g>
</svg>