<?xml version="1.0" standalone="no"?>
<!DOCTYPE svg PUBLIC "-//W3C//DTD SVG 20010904//EN"
 "http://www.w3.org/TR/2001/REC-SVG-20010904/DTD/svg10.dtd">
<svg version="1.0" xmlns="http://www.w3.org/2000/svg"
 width="2048.000000pt" height="1448.000000pt" viewBox="0 0 2048.000000 1448.000000"
 preserveAspectRatio="xMidYMid meet">

<g transform="translate(0.000000,1448.000000) scale(0.100000,-0.100000)"
fill="#000000" stroke="none">
<path d="M9580 14114 c-157 -10 -319 -27 -435 -45 -1218 -183 -2298 -875
-2980 -1909 -731 -1108 -911 -2496 -490 -3764 276 -828 810 -1565 1520 -2098
695 -522 1530 -820 2402 -858 753 -32 1462 117 2123 446 617 308 1127 731
1546 1284 270 356 505 804 649 1236 74 222 145 525 174 739 6 44 16 116 22
160 18 136 27 472 18 671 -47 1082 -495 2097 -1265 2868 -710 710 -1615 1142
-2621 1251 -134 15 -552 27 -663 19z m570 -319 c853 -75 1640 -409 2290 -973
1155 -1001 1644 -2574 1260 -4057 -134 -517 -358 -983 -685 -1419 -211 -282
-513 -583 -810 -808 -766 -578 -1784 -868 -2745 -783 -271 24 -398 45 -645
106 -1018 254 -1889 889 -2453 1789 -331 528 -537 1153 -592 1795 -13 155 -13
518 0 665 63 698 284 1333 663 1900 698 1046 1841 1711 3082 1793 142 9 489 5
635 -8z"/>
<path d="M9510 13524 c-238 -28 -392 -51 -525 -81 -1480 -325 -2625 -1517
-2889 -3008 -44 -250 -51 -335 -51 -655 0 -321 7 -417 51 -665 143 -807 568
-1577 1167 -2114 447 -401 938 -676 1492 -834 260 -75 357 -92 520 -92 141 0
154 2 214 27 113 49 178 110 217 206 l24 57 0 676 0 676 -23 21 c-13 12 -49
31 -81 42 -277 95 -415 343 -433 776 -6 154 6 351 32 534 8 52 19 136 26 185
7 50 16 98 21 108 11 21 56 23 83 3 19 -14 19 -17 -4 -172 -39 -266 -50 -401
-50 -579 0 -225 4 -243 50 -259 20 -7 65 -32 99 -54 81 -54 110 -54 219 -2
106 51 142 52 241 4 41 -20 94 -39 118 -42 39 -4 50 0 111 42 37 25 82 49 99
52 17 3 34 14 37 23 14 33 18 329 6 446 -17 167 -41 353 -51 400 -13 57 -12
129 2 143 14 14 74 16 82 3 12 -19 65 -436 76 -598 26 -390 -41 -694 -190
-856 -70 -77 -127 -115 -230 -153 -63 -24 -90 -40 -103 -61 -16 -26 -17 -72
-14 -693 2 -607 4 -669 20 -710 26 -66 82 -137 134 -171 88 -55 147 -72 280
-77 104 -4 139 -1 255 23 629 128 1216 417 1708 841 117 100 332 320 427 434
477 577 757 1231 849 1986 21 171 24 634 5 799 -75 667 -295 1256 -664 1780
-555 787 -1390 1333 -2332 1524 -236 48 -397 63 -700 66 -159 2 -306 1 -325
-1z m-1220 -2159 c277 -39 508 -144 666 -304 81 -81 126 -151 161 -253 34 -95
38 -262 9 -348 -43 -127 -105 -216 -214 -305 -85 -71 -277 -166 -402 -201 -52
-14 -102 -28 -110 -31 -8 -3 19 -13 60 -24 178 -45 334 -130 426 -232 65 -70
96 -124 131 -223 l28 -79 -3 -447 c-3 -483 3 -564 53 -753 23 -91 75 -212 115
-272 12 -18 19 -33 14 -33 -15 0 -120 64 -174 105 -30 24 -89 78 -131 121
-124 130 -193 245 -248 417 -49 153 -61 263 -61 549 0 279 -9 339 -66 454 -37
74 -133 171 -215 217 -125 70 -312 107 -539 107 l-110 0 0 75 0 75 158 0 c347
1 545 58 677 195 112 117 174 254 183 406 17 305 -165 567 -463 666 -76 26
-91 27 -333 31 -287 4 -346 -4 -443 -62 -58 -35 -111 -102 -129 -164 -6 -24
-10 -417 -10 -1129 0 -1078 0 -1093 21 -1147 35 -95 142 -172 275 -199 64 -13
69 -16 72 -41 2 -16 1 -39 -2 -52 l-6 -24 -543 2 -542 3 -3 51 -3 51 73 12
c131 21 219 78 262 171 21 45 21 52 24 1154 2 962 0 1117 -13 1161 -32 110
-157 202 -289 212 l-66 6 0 48 0 49 800 0 c665 0 818 -3 910 -15z m2790 -462
c217 -262 413 -497 435 -523 22 -25 258 -309 525 -630 l485 -583 3 929 c2
1045 7 983 -74 1073 -51 57 -114 89 -201 104 l-63 11 0 48 0 48 400 0 400 0 0
-49 0 -48 -40 -7 c-117 -19 -211 -81 -254 -168 l-26 -52 0 -1332 c0 -733 -3
-1335 -7 -1337 -5 -3 -69 67 -143 156 -74 88 -245 291 -380 451 -135 160 -308
365 -384 456 -76 91 -228 271 -336 400 -109 129 -263 312 -342 406 -78 93
-160 190 -180 214 l-38 44 0 -890 c0 -926 -4 -1036 -45 -1188 -41 -154 -123
-295 -232 -396 -66 -62 -212 -165 -221 -156 -2 3 7 25 21 49 63 106 103 240
132 432 19 129 19 451 0 610 -14 116 -21 350 -45 1512 -8 384 -14 524 -25 559
-37 124 -156 213 -307 231 l-48 6 0 48 0 49 298 0 297 -1 395 -476z"/>
<path d="M320 4146 c14 -14 76 -51 196 -118 29 -15 57 -34 63 -42 8 -9 10
-358 9 -1267 l-3 -1254 -135 -78 -135 -77 485 0 485 0 -137 78 -138 77 0 435
0 435 51 -100 c90 -176 191 -318 324 -450 222 -223 472 -360 795 -438 112 -27
297 -55 395 -59 l60 -3 2 263 2 262 -212 0 c-240 0 -417 17 -581 56 -392 94
-657 282 -788 560 -21 45 -38 85 -38 88 0 3 155 6 344 6 264 0 362 3 423 15
288 55 501 210 609 442 40 84 59 154 74 265 24 171 -34 398 -139 552 -118 172
-302 292 -528 345 -88 20 -112 21 -794 21 -611 0 -701 -2 -689 -14z m1328
-119 c254 -155 396 -407 394 -702 -2 -287 -152 -546 -388 -669 l-51 -26 -294
2 -294 3 -3 705 c-1 388 0 711 3 718 4 10 63 12 287 10 l283 -3 63 -38z"/>
<path d="M10351 4153 l-194 -3 187 -127 186 -126 0 -1152 0 -1152 -217 -144
-216 -144 242 -3 c133 -1 349 -1 479 0 l236 3 -144 106 c-80 58 -169 122 -197
143 l-53 38 0 1086 0 1086 48 -70 c26 -38 391 -584 811 -1214 420 -630 771
-1153 779 -1162 12 -14 31 -18 84 -18 l68 0 2 1283 3 1282 65 43 c36 24 134
86 218 138 83 53 152 100 152 105 0 5 -204 9 -485 9 -267 0 -485 -3 -485 -7 0
-5 90 -69 200 -143 121 -82 202 -143 205 -155 3 -11 4 -420 3 -910 l-3 -890
-234 350 c-129 193 -430 643 -670 1000 -239 358 -451 674 -470 703 l-34 52
-186 -2 c-102 -2 -273 -4 -380 -5z"/>
<path d="M19560 4136 c-209 -59 -370 -268 -370 -481 1 -274 226 -498 502 -498
181 0 361 111 442 271 25 51 56 172 56 222 0 58 -32 185 -58 235 -65 120 -205
228 -330 254 -68 14 -185 13 -242 -3z m294 -82 c93 -37 175 -115 223 -210 31
-64 37 -88 41 -159 5 -94 -6 -153 -45 -232 -30 -62 -119 -150 -183 -183 -219
-112 -481 -25 -590 196 -29 60 -35 81 -38 160 -7 149 38 259 144 353 122 109
293 137 448 75z"/>
<path d="M19520 3655 l0 -295 30 0 30 0 0 130 0 130 79 0 c69 0 84 -3 106 -23
23 -19 28 -34 36 -107 15 -132 14 -130 55 -130 30 0 35 3 30 17 -4 9 -11 58
-16 109 -9 105 -19 127 -62 154 l-30 18 31 16 c41 22 61 63 61 127 0 114 -56
149 -235 149 l-115 0 0 -295z m240 225 c53 -28 61 -127 13 -172 -21 -20 -37
-24 -109 -27 l-84 -3 0 104 c0 58 3 108 8 112 10 11 146 0 172 -14z"/>
<path d="M14522 3190 c-129 -61 -240 -110 -247 -110 -7 0 -37 11 -67 24 -258
114 -576 108 -823 -17 -295 -148 -494 -436 -525 -756 -42 -447 225 -857 649
-996 l54 -18 -90 -46 c-137 -71 -204 -128 -274 -236 -50 -75 -73 -151 -72
-240 0 -218 150 -380 392 -422 173 -31 335 13 482 132 106 86 177 191 244 360
41 105 101 217 142 265 91 106 246 119 334 27 56 -58 59 -70 59 -249 l0 -168
-133 0 c-115 0 -136 -2 -149 -17 -8 -10 -50 -74 -93 -143 -43 -69 -85 -135
-93 -147 l-14 -23 296 0 296 0 0 348 0 347 -30 51 c-75 132 -229 189 -378 140
-63 -21 -145 -93 -198 -174 -20 -31 -57 -88 -82 -127 -132 -204 -251 -277
-447 -277 -117 0 -187 25 -243 86 -46 50 -57 90 -49 172 8 76 49 146 140 238
l77 79 71 -7 c144 -13 351 30 497 103 293 148 487 425 522 749 19 176 -15 363
-96 523 -43 86 -143 218 -205 272 -27 23 -49 45 -49 50 0 4 79 7 175 7 l175 0
0 155 c0 85 -3 155 -7 155 -5 -1 -113 -50 -241 -110z m-539 -98 c185 -92 319
-303 383 -602 25 -118 25 -391 0 -508 -64 -300 -196 -506 -380 -598 -233 -114
-476 6 -626 311 -227 461 -118 1124 224 1360 87 59 145 76 249 72 73 -4 98
-10 150 -35z"/>
<path d="M18257 3169 c-189 -28 -370 -158 -496 -355 l-51 -79 0 208 c0 158 -3
209 -13 212 -7 3 -147 4 -311 3 l-299 -3 126 -84 127 -84 0 -766 0 -766 -105
-69 c-58 -38 -105 -70 -105 -72 0 -2 188 -4 418 -4 l417 0 -107 64 c-59 35
-113 66 -121 69 -11 4 -15 95 -20 546 -6 511 -6 544 12 601 46 147 167 267
336 332 83 32 229 33 296 2 52 -24 113 -83 139 -134 44 -86 44 -86 50 -800 l5
-685 303 -3 c166 -1 302 1 302 5 0 5 -52 37 -115 71 l-114 64 -3 631 -3 632
-31 76 c-111 275 -366 430 -637 388z"/>
<path d="M5762 3160 c-371 -52 -670 -295 -788 -642 -55 -161 -59 -387 -9 -553
94 -320 352 -566 680 -652 144 -37 327 -37 470 1 426 112 715 483 715 917 0
422 -297 798 -716 904 -105 27 -259 38 -352 25z m283 -90 c111 -52 206 -155
278 -300 166 -335 166 -755 0 -1090 -47 -96 -69 -127 -132 -191 -54 -54 -96
-86 -146 -110 -64 -31 -77 -34 -165 -34 -91 0 -100 2 -172 38 -235 116 -398
459 -398 839 0 418 186 774 455 871 80 28 192 19 280 -23z"/>
<path d="M15922 3160 c-599 -84 -969 -668 -781 -1234 100 -300 348 -529 664
-612 81 -21 124 -27 225 -27 175 -2 303 28 455 106 236 122 416 349 481 607
29 115 27 357 -4 465 -96 337 -351 585 -688 670 -105 27 -259 38 -352 25z
m291 -93 c125 -62 239 -198 308 -368 168 -414 89 -964 -177 -1222 -107 -102
-201 -142 -326 -135 -389 22 -648 648 -502 1217 35 135 118 301 194 384 110
120 215 170 347 164 70 -3 92 -9 156 -40z"/>
<path d="M2760 3156 c0 -2 54 -39 120 -82 l120 -77 0 -581 c0 -655 1 -663 71
-805 117 -236 374 -367 624 -317 197 40 367 169 488 370 19 32 37 54 40 49 3
-4 5 -94 6 -198 0 -105 1 -196 1 -203 0 -10 63 -12 300 -11 165 0 300 4 300 7
0 4 -52 34 -115 67 -68 36 -115 66 -115 75 0 8 0 389 0 845 0 457 -4 836 -8
843 -7 9 -77 12 -316 10 l-308 -3 120 -79 120 -79 7 -191 c4 -105 5 -353 3
-551 l-3 -360 -32 -68 c-43 -91 -142 -194 -231 -240 -241 -127 -457 -70 -543
143 -11 29 -15 165 -19 735 l-5 700 -312 3 c-172 1 -313 0 -313 -2z"/>
<path d="M6926 3151 c5 -4 62 -42 127 -84 l117 -77 0 -605 0 -606 27 -82 c51
-155 167 -290 308 -357 235 -112 501 -55 705 150 48 48 102 115 124 153 21 37
43 67 47 67 5 0 9 -92 9 -205 l0 -206 306 2 c168 0 303 4 299 7 -3 4 -57 34
-118 67 l-112 60 -3 858 -2 857 -317 0 -318 0 128 -85 127 -86 -2 -552 -3
-552 -28 -58 c-63 -127 -183 -233 -315 -279 -95 -33 -226 -32 -300 1 -65 29
-123 94 -154 170 l-23 56 -3 698 -3 697 -316 0 c-177 0 -313 -4 -307 -9z"/>
</g>
</svg>
